<svg xmlns="http://www.w3.org/2000/svg" xmlns:xlink="http://www.w3.org/1999/xlink" width="147" zoomAndPan="magnify" viewBox="0 0 110.25 110.249996" height="147" preserveAspectRatio="xMidYMid meet" version="1.0"><defs><clipPath id="849d759994"><path d="M 0 0 L 109.246094 0 L 109.246094 109.246094 L 0 109.246094 Z M 0 0 " clip-rule="nonzero"/></clipPath><clipPath id="8f8adce498"><path d="M 54.621094 0 C 24.457031 0 0 24.457031 0 54.621094 C 0 84.789062 24.457031 109.246094 54.621094 109.246094 C 84.789062 109.246094 109.246094 84.789062 109.246094 54.621094 C 109.246094 24.457031 84.789062 0 54.621094 0 Z M 54.621094 0 " clip-rule="nonzero"/></clipPath><clipPath id="86c131c4dd"><path d="M 22.964844 22.964844 L 86.285156 22.964844 L 86.285156 86.285156 L 22.964844 86.285156 Z M 22.964844 22.964844 " clip-rule="nonzero"/></clipPath></defs><g clip-path="url(#849d759994)"><g clip-path="url(#8f8adce498)"><path fill="#35408e" d="M 0 0 L 109.246094 0 L 109.246094 109.246094 L 0 109.246094 Z M 0 0 " fill-opacity="1" fill-rule="nonzero"/></g></g><g clip-path="url(#86c131c4dd)"><path fill="#ffffff" d="M 54.617188 86.273438 C 46.164062 86.273438 38.214844 82.980469 32.234375 77 C 26.257812 71.023438 22.964844 63.074219 22.964844 54.617188 C 22.964844 46.164062 26.257812 38.214844 32.234375 32.234375 C 38.214844 26.257812 46.164062 22.964844 54.617188 22.964844 C 63.074219 22.964844 71.023438 26.257812 77 32.234375 C 82.980469 38.214844 86.273438 46.164062 86.273438 54.617188 C 86.273438 63.074219 82.980469 71.023438 77 77 C 71.023438 82.980469 63.074219 86.273438 54.617188 86.273438 Z M 54.617188 27.796875 C 39.828125 27.796875 27.796875 39.828125 27.796875 54.617188 C 27.796875 69.410156 39.828125 81.441406 54.617188 81.441406 C 69.410156 81.441406 81.441406 69.410156 81.441406 54.617188 C 81.441406 39.828125 69.410156 27.796875 54.617188 27.796875 Z M 54.617188 27.796875 " fill-opacity="1" fill-rule="nonzero"/></g><path fill="#ffffff" d="M 65.125 66.839844 C 64.65625 66.839844 64.179688 66.703125 63.761719 66.417969 L 51.996094 58.347656 C 51.335938 57.898438 50.945312 57.152344 50.945312 56.351562 L 50.976562 36.605469 C 50.976562 35.273438 52.058594 34.195312 53.390625 34.195312 C 53.390625 34.195312 53.394531 34.195312 53.394531 34.195312 C 54.726562 34.195312 55.808594 35.28125 55.804688 36.613281 L 55.777344 55.085938 L 66.492188 62.433594 C 67.59375 63.1875 67.875 64.691406 67.117188 65.792969 C 66.652344 66.472656 65.894531 66.839844 65.125 66.839844 Z M 65.125 66.839844 " fill-opacity="1" fill-rule="nonzero"/></svg>