<svg xmlns="http://www.w3.org/2000/svg" xmlns:xlink="http://www.w3.org/1999/xlink" width="147" zoomAndPan="magnify" viewBox="0 0 110.25 110.249996" height="147" preserveAspectRatio="xMidYMid meet" version="1.0"><defs><clipPath id="ee76cdddbb"><path d="M 0 0 L 109.246094 0 L 109.246094 109.246094 L 0 109.246094 Z M 0 0 " clip-rule="nonzero"/></clipPath><clipPath id="6959f57fe7"><path d="M 54.621094 0 C 24.457031 0 0 24.457031 0 54.621094 C 0 84.789062 24.457031 109.246094 54.621094 109.246094 C 84.789062 109.246094 109.246094 84.789062 109.246094 54.621094 C 109.246094 24.457031 84.789062 0 54.621094 0 Z M 54.621094 0 " clip-rule="nonzero"/></clipPath><clipPath id="cd852b25a2"><path d="M 25.628906 25 L 76 25 L 76 84.515625 L 25.628906 84.515625 Z M 25.628906 25 " clip-rule="nonzero"/></clipPath><clipPath id="c5fcd50a1e"><path d="M 79 51 L 83.730469 51 L 83.730469 60 L 79 60 Z M 79 51 " clip-rule="nonzero"/></clipPath></defs><g clip-path="url(#ee76cdddbb)"><g clip-path="url(#6959f57fe7)"><path fill="#35408e" d="M 0 0 L 109.246094 0 L 109.246094 109.246094 L 0 109.246094 Z M 0 0 " fill-opacity="1" fill-rule="nonzero"/></g></g><g clip-path="url(#cd852b25a2)"><path fill="#ffffff" d="M 69.714844 25.121094 C 69.183594 25.285156 68.386719 26.105469 68.210938 26.683594 C 68.003906 27.375 68.039062 27.652344 68.421875 28.71875 C 68.617188 29.238281 68.765625 29.675781 68.765625 29.699219 C 68.765625 29.722656 68.257812 29.480469 67.648438 29.167969 C 64.675781 27.6875 61.671875 26.777344 58.214844 26.324219 C 56.433594 26.09375 52.957031 26.09375 51.082031 26.324219 C 42.585938 27.375 34.980469 32.171875 30.242188 39.441406 C 28.046875 42.816406 26.589844 46.726562 25.921875 51 C 25.667969 52.675781 25.632812 57.335938 25.863281 58.917969 C 26.855469 65.53125 29.527344 70.953125 34.070312 75.539062 C 38.53125 80.058594 44.183594 82.925781 50.503906 83.886719 C 53.269531 84.300781 58.121094 84.210938 59.242188 83.710938 C 60.0625 83.355469 60.675781 82.230469 60.515625 81.378906 C 60.398438 80.753906 59.832031 79.96875 59.335938 79.722656 C 58.839844 79.480469 58.699219 79.46875 55.707031 79.609375 C 48.921875 79.910156 42.566406 77.503906 37.6875 72.789062 C 35.457031 70.628906 34.046875 68.699219 32.695312 65.96875 C 30.855469 62.28125 30.058594 58.515625 30.199219 54.308594 C 30.40625 47.996094 32.855469 42.320312 37.269531 37.871094 C 40.53125 34.601562 44.460938 32.382812 48.945312 31.285156 C 50.726562 30.855469 52.503906 30.660156 54.757812 30.660156 C 58.640625 30.660156 62.144531 31.445312 65.289062 33.027344 L 66.269531 33.515625 L 65.820312 33.664062 C 65.578125 33.746094 65.148438 34.023438 64.871094 34.277344 C 63.265625 35.757812 64.304688 38.402344 66.492188 38.402344 C 67.253906 38.402344 73.96875 36.324219 74.488281 35.929688 C 75.078125 35.480469 75.378906 34.808594 75.378906 33.976562 C 75.378906 33.386719 75.207031 32.832031 74.027344 29.734375 C 72.570312 25.910156 72.421875 25.644531 71.484375 25.214844 C 70.988281 24.984375 70.316406 24.949219 69.714844 25.121094 Z M 69.714844 25.121094 " fill-opacity="1" fill-rule="nonzero"/></g><path fill="#ffffff" d="M 76.140625 38.632812 C 75.34375 39.0625 74.789062 40.171875 74.953125 40.980469 C 74.996094 41.1875 75.34375 41.894531 75.738281 42.554688 C 76.117188 43.222656 76.648438 44.238281 76.929688 44.808594 C 77.449219 45.9375 77.828125 46.378906 78.5 46.65625 C 79.066406 46.898438 79.585938 46.886719 80.152344 46.621094 C 81.054688 46.203125 81.480469 45.523438 81.480469 44.496094 C 81.480469 43.996094 81.355469 43.652344 80.683594 42.285156 C 79.527344 39.941406 78.859375 38.957031 78.222656 38.65625 C 77.574219 38.335938 76.71875 38.335938 76.140625 38.632812 Z M 76.140625 38.632812 " fill-opacity="1" fill-rule="nonzero"/><path fill="#ffffff" d="M 51.730469 41.234375 C 51.1875 41.429688 50.644531 41.917969 50.4375 42.414062 C 50.308594 42.714844 50.273438 44.261719 50.273438 50.886719 C 50.273438 59.71875 50.25 59.40625 50.945312 60.050781 C 51.164062 60.261719 53.3125 61.277344 56.933594 62.871094 C 61.84375 65.035156 62.664062 65.355469 63.171875 65.367188 C 65.171875 65.378906 66.144531 62.941406 64.6875 61.554688 C 64.433594 61.300781 62.882812 60.558594 59.578125 59.117188 L 54.839844 57.035156 L 54.78125 49.878906 C 54.722656 42.042969 54.757812 42.4375 54.007812 41.730469 C 53.347656 41.109375 52.574219 40.933594 51.730469 41.234375 Z M 51.730469 41.234375 " fill-opacity="1" fill-rule="nonzero"/><g clip-path="url(#c5fcd50a1e)"><path fill="#ffffff" d="M 80.5 51.222656 C 79.96875 51.464844 79.472656 51.960938 79.308594 52.402344 C 79.238281 52.5625 79.171875 53.996094 79.148438 55.589844 L 79.113281 58.492188 L 79.460938 58.988281 C 79.921875 59.648438 80.558594 59.960938 81.390625 59.960938 C 82.257812 59.949219 82.914062 59.519531 83.332031 58.6875 C 83.621094 58.121094 83.621094 58.0625 83.621094 55.394531 C 83.621094 52.746094 83.609375 52.667969 83.34375 52.191406 C 82.742188 51.140625 81.550781 50.734375 80.5 51.222656 Z M 80.5 51.222656 " fill-opacity="1" fill-rule="nonzero"/></g><path fill="#ffffff" d="M 78.128906 64.304688 C 77.632812 64.503906 77.195312 65.011719 76.71875 65.96875 C 76.464844 66.480469 75.886719 67.519531 75.425781 68.28125 C 74.664062 69.554688 74.605469 69.714844 74.605469 70.304688 C 74.617188 71.507812 75.4375 72.394531 76.628906 72.476562 C 77.714844 72.558594 78.234375 72.246094 79.03125 71.007812 C 79.390625 70.464844 80.035156 69.320312 80.476562 68.464844 C 81.238281 66.976562 81.273438 66.882812 81.226562 66.246094 C 81.136719 65.011719 80.246094 64.167969 79.042969 64.191406 C 78.695312 64.191406 78.292969 64.246094 78.128906 64.304688 Z M 78.128906 64.304688 " fill-opacity="1" fill-rule="nonzero"/><path fill="#ffffff" d="M 70.003906 74.582031 C 69.832031 74.636719 69.230469 74.984375 68.675781 75.367188 C 68.121094 75.75 67.171875 76.328125 66.570312 76.660156 C 65.277344 77.367188 65.113281 77.503906 64.824219 78.070312 C 64.445312 78.8125 64.605469 80.011719 65.160156 80.625 C 65.519531 81.03125 66.191406 81.285156 66.847656 81.285156 C 67.613281 81.285156 68.511719 80.84375 70.746094 79.378906 C 72.292969 78.359375 72.59375 78.046875 72.8125 77.261719 C 73.242188 75.644531 71.621094 74.09375 70.003906 74.582031 Z M 70.003906 74.582031 " fill-opacity="1" fill-rule="nonzero"/></svg>