<svg xmlns="http://www.w3.org/2000/svg" xmlns:xlink="http://www.w3.org/1999/xlink" width="147" zoomAndPan="magnify" viewBox="0 0 110.25 110.249996" height="147" preserveAspectRatio="xMidYMid meet" version="1.0"><defs><clipPath id="e782afdf79"><path d="M 0 0 L 109.246094 0 L 109.246094 109.246094 L 0 109.246094 Z M 0 0 " clip-rule="nonzero"/></clipPath><clipPath id="8ff9792479"><path d="M 54.621094 0 C 24.457031 0 0 24.457031 0 54.621094 C 0 84.789062 24.457031 109.246094 54.621094 109.246094 C 84.789062 109.246094 109.246094 84.789062 109.246094 54.621094 C 109.246094 24.457031 84.789062 0 54.621094 0 Z M 54.621094 0 " clip-rule="nonzero"/></clipPath><clipPath id="15a6328c1e"><path d="M 66 24.980469 L 85 24.980469 L 85 47 L 66 47 Z M 66 24.980469 " clip-rule="nonzero"/></clipPath><clipPath id="7bae12f41a"><path d="M 66 46 L 91.945312 46 L 91.945312 69 L 66 69 Z M 66 46 " clip-rule="nonzero"/></clipPath><clipPath id="4c2207a7a9"><path d="M 35 58 L 74 58 L 74 84.574219 L 35 84.574219 Z M 35 58 " clip-rule="nonzero"/></clipPath><clipPath id="27a63a8700"><path d="M 24 24.980469 L 43 24.980469 L 43 47 L 24 47 Z M 24 24.980469 " clip-rule="nonzero"/></clipPath><clipPath id="95dcc491dd"><path d="M 17.453125 46 L 44 46 L 44 69 L 17.453125 69 Z M 17.453125 46 " clip-rule="nonzero"/></clipPath></defs><g clip-path="url(#e782afdf79)"><g clip-path="url(#8ff9792479)"><path fill="#35408e" d="M 0 0 L 109.246094 0 L 109.246094 109.246094 L 0 109.246094 Z M 0 0 " fill-opacity="1" fill-rule="nonzero"/></g></g><path stroke-linecap="butt" transform="matrix(0.0197469, 0, 0, -0.0197469, 6.090625, 103.158372)" fill="none" stroke-linejoin="miter" d="M 2803.202904 2099.918293 C 2803.202904 2108.028726 2803.202904 2109.017803 2803.202904 2107.435279 L 2803.202904 2106.446202 C 2803.202904 2104.665863 2803.202904 2101.698632 2803.202904 2099.918293 Z M 2803.202904 2099.918293 " stroke="#212121" stroke-width="153.600998" stroke-opacity="1" stroke-miterlimit="2.613"/><g clip-path="url(#15a6328c1e)"><path fill="#ffffff" d="M 75.855469 43.519531 C 77.488281 43.519531 78.984375 42.695312 80.082031 41.363281 C 81.246094 39.949219 81.964844 37.972656 81.964844 35.769531 C 81.964844 33.464844 81.734375 31.417969 80.839844 30.042969 C 80.027344 28.792969 78.515625 28.023438 75.855469 28.023438 C 73.191406 28.023438 71.683594 28.792969 70.867188 30.042969 C 69.972656 31.417969 69.742188 33.464844 69.742188 35.769531 C 69.742188 37.972656 70.464844 39.949219 71.628906 41.363281 C 72.722656 42.695312 74.21875 43.519531 75.855469 43.519531 Z M 82.414062 43.28125 C 80.75 45.300781 78.433594 46.550781 75.855469 46.550781 C 73.277344 46.550781 70.957031 45.300781 69.292969 43.28125 C 67.695312 41.34375 66.710938 38.6875 66.710938 35.769531 C 66.710938 32.957031 67.039062 30.375 68.332031 28.394531 C 69.707031 26.292969 72.007812 24.988281 75.855469 24.988281 C 79.699219 24.988281 82.003906 26.292969 83.375 28.394531 C 84.667969 30.375 85 32.957031 85 35.769531 C 85 38.6875 84.011719 41.34375 82.414062 43.28125 " fill-opacity="1" fill-rule="nonzero"/></g><g clip-path="url(#7bae12f41a)"><path fill="#ffffff" d="M 88.734375 61.339844 C 88.667969 57.191406 88.390625 54.5625 87.203125 52.9375 C 86.121094 51.449219 84.082031 50.582031 80.492188 49.878906 C 79.675781 50.515625 78.152344 51.371094 75.855469 51.371094 C 73.554688 51.371094 72.03125 50.515625 71.214844 49.878906 C 68.90625 50.332031 67.234375 50.851562 66.050781 51.5625 C 66.445312 50.382812 66.703125 49.15625 66.816406 47.914062 C 68.097656 47.460938 69.613281 47.09375 71.410156 46.769531 L 72.292969 46.609375 L 72.855469 47.308594 C 72.859375 47.3125 73.660156 48.335938 75.855469 48.335938 C 78.046875 48.335938 78.851562 47.3125 78.851562 47.308594 L 79.414062 46.609375 L 80.296875 46.769531 C 85.160156 47.644531 87.957031 48.84375 89.644531 51.160156 C 91.304688 53.429688 91.679688 56.53125 91.753906 61.292969 L 91.757812 61.503906 C 91.769531 62.054688 91.777344 62.601562 91.777344 62.628906 L 91.597656 63.332031 C 91.589844 63.347656 89.0625 68.421875 75.855469 68.421875 C 75.378906 68.421875 74.921875 68.414062 74.476562 68.398438 C 74.265625 67.339844 73.976562 66.308594 73.582031 65.335938 C 74.292969 65.371094 75.046875 65.386719 75.855469 65.386719 C 85.335938 65.386719 88.089844 62.980469 88.742188 62.179688 C 88.742188 61.824219 88.738281 61.6875 88.738281 61.550781 L 88.734375 61.339844 " fill-opacity="1" fill-rule="nonzero"/></g><path fill="#ffffff" d="M 54.621094 54.988281 C 56.699219 54.988281 58.597656 53.945312 59.984375 52.257812 C 61.441406 50.492188 62.339844 48.027344 62.339844 45.289062 C 62.339844 42.445312 62.050781 39.90625 60.925781 38.179688 C 59.882812 36.578125 57.96875 35.589844 54.621094 35.589844 C 51.277344 35.589844 49.363281 36.578125 48.320312 38.179688 C 47.195312 39.90625 46.90625 42.445312 46.90625 45.289062 C 46.90625 48.027344 47.804688 50.492188 49.261719 52.257812 C 50.648438 53.945312 52.546875 54.988281 54.621094 54.988281 Z M 62.320312 54.175781 C 60.363281 56.550781 57.644531 58.019531 54.621094 58.019531 C 51.601562 58.019531 48.878906 56.550781 46.925781 54.179688 C 45.039062 51.886719 43.871094 48.742188 43.871094 45.289062 C 43.871094 41.9375 44.261719 38.867188 45.785156 36.535156 C 47.386719 34.074219 50.09375 32.554688 54.621094 32.554688 C 59.152344 32.554688 61.855469 34.074219 63.460938 36.535156 C 64.984375 38.867188 65.375 41.9375 65.375 45.289062 C 65.375 48.742188 64.207031 51.886719 62.320312 54.175781 " fill-opacity="1" fill-rule="nonzero"/><g clip-path="url(#4c2207a7a9)"><path fill="#ffffff" d="M 70.53125 76.011719 C 70.453125 70.925781 70.105469 67.691406 68.621094 65.65625 C 67.238281 63.761719 64.671875 62.679688 60.15625 61.804688 C 59.246094 62.542969 57.433594 63.628906 54.621094 63.628906 C 51.8125 63.628906 50 62.542969 49.089844 61.804688 C 44.621094 62.667969 42.0625 63.738281 40.667969 65.597656 C 39.179688 67.585938 38.8125 70.726562 38.71875 75.664062 L 38.714844 75.84375 C 38.707031 76.203125 38.703125 76.527344 38.699219 77.136719 C 39.433594 78.085938 42.753906 81.234375 54.621094 81.234375 C 66.492188 81.234375 69.8125 78.085938 70.542969 77.136719 C 70.542969 76.679688 70.539062 76.476562 70.535156 76.273438 Z M 71.0625 63.878906 C 73.015625 66.5625 73.464844 70.261719 73.554688 75.964844 L 73.558594 76.226562 C 73.566406 76.851562 73.578125 77.464844 73.578125 77.574219 L 73.398438 78.28125 C 73.390625 78.296875 70.414062 84.269531 54.621094 84.269531 C 38.832031 84.269531 35.855469 78.296875 35.84375 78.28125 L 35.667969 77.574219 C 35.667969 77.238281 35.679688 76.566406 35.695312 75.796875 L 35.699219 75.613281 C 35.800781 70.042969 36.28125 66.417969 38.253906 63.785156 C 40.25 61.121094 43.5625 59.726562 49.300781 58.691406 L 50.179688 58.53125 L 50.746094 59.230469 C 50.746094 59.234375 51.8125 60.59375 54.621094 60.59375 C 57.433594 60.59375 58.496094 59.234375 58.5 59.230469 L 59.0625 58.53125 L 59.945312 58.691406 C 65.746094 59.738281 69.074219 61.152344 71.0625 63.878906 " fill-opacity="1" fill-rule="nonzero"/></g><g clip-path="url(#27a63a8700)"><path fill="#ffffff" d="M 33.386719 43.519531 C 31.753906 43.519531 30.257812 42.695312 29.160156 41.363281 C 27.996094 39.949219 27.277344 37.972656 27.277344 35.769531 C 27.277344 33.464844 27.503906 31.417969 28.402344 30.042969 C 29.214844 28.792969 30.726562 28.023438 33.386719 28.023438 C 36.050781 28.023438 37.558594 28.792969 38.375 30.042969 C 39.269531 31.417969 39.5 33.464844 39.5 35.769531 C 39.5 37.972656 38.777344 39.949219 37.613281 41.363281 C 36.515625 42.695312 35.019531 43.519531 33.386719 43.519531 Z M 26.828125 43.28125 C 28.492188 45.300781 30.808594 46.550781 33.386719 46.550781 C 35.964844 46.550781 38.285156 45.300781 39.949219 43.28125 C 41.542969 41.34375 42.53125 38.6875 42.53125 35.769531 C 42.53125 32.957031 42.199219 30.375 40.910156 28.394531 C 39.535156 26.292969 37.230469 24.988281 33.386719 24.988281 C 29.542969 24.988281 27.238281 26.292969 25.867188 28.394531 C 24.574219 30.375 24.242188 32.957031 24.242188 35.769531 C 24.242188 38.6875 25.230469 41.34375 26.828125 43.28125 " fill-opacity="1" fill-rule="nonzero"/></g><g clip-path="url(#95dcc491dd)"><path fill="#ffffff" d="M 20.507812 61.339844 C 20.574219 57.191406 20.847656 54.5625 22.035156 52.9375 C 23.121094 51.449219 25.160156 50.582031 28.75 49.878906 C 29.566406 50.515625 31.089844 51.371094 33.386719 51.371094 C 35.683594 51.371094 37.210938 50.515625 38.023438 49.878906 C 40.335938 50.332031 42.003906 50.851562 43.191406 51.5625 C 42.792969 50.382812 42.539062 49.15625 42.421875 47.914062 C 41.140625 47.460938 39.628906 47.09375 37.832031 46.769531 L 36.949219 46.609375 L 36.386719 47.308594 C 36.382812 47.3125 35.582031 48.335938 33.386719 48.335938 C 31.195312 48.335938 30.390625 47.3125 30.390625 47.308594 L 29.828125 46.609375 L 28.945312 46.769531 C 24.082031 47.644531 21.285156 48.84375 19.59375 51.160156 C 17.9375 53.429688 17.5625 56.53125 17.484375 61.292969 L 17.484375 61.503906 C 17.472656 62.054688 17.464844 62.601562 17.464844 62.628906 L 17.644531 63.332031 C 17.648438 63.347656 20.179688 68.421875 33.386719 68.421875 C 33.859375 68.421875 34.320312 68.414062 34.765625 68.398438 C 34.976562 67.339844 35.261719 66.308594 35.660156 65.335938 C 34.949219 65.371094 34.191406 65.386719 33.386719 65.386719 C 23.90625 65.386719 21.152344 62.980469 20.5 62.179688 C 20.5 61.824219 20.503906 61.6875 20.503906 61.550781 L 20.507812 61.339844 " fill-opacity="1" fill-rule="nonzero"/></g></svg>